<?xml version="1.0" standalone="no"?>
<!DOCTYPE svg PUBLIC "-//W3C//DTD SVG 20010904//EN"
 "http://www.w3.org/TR/2001/REC-SVG-20010904/DTD/svg10.dtd">
<svg version="1.0" xmlns="http://www.w3.org/2000/svg"
 width="96.000000pt" height="96.000000pt" viewBox="0 0 96.000000 96.000000"
 preserveAspectRatio="xMidYMid meet">
<metadata>
Created by potrace 1.16, written by Peter Selinger 2001-2019
</metadata>
<g transform="translate(0.000000,96.000000) scale(0.100000,-0.100000)"
fill="#000000" stroke="none">
<path d="M0 480 l0 -480 480 0 480 0 0 480 0 480 -480 0 -480 0 0 -480z m555
429 c69 -41 175 -181 175 -231 0 -16 -12 -41 -29 -61 l-30 -33 29 -11 c35 -13
57 -48 112 -176 36 -85 40 -102 32 -134 -5 -20 -19 -42 -31 -51 -23 -14 -23
-14 -23 46 0 53 -3 63 -26 81 -25 20 -39 21 -284 21 -245 0 -259 -1 -284 -21
-23 -18 -26 -28 -26 -81 0 -60 0 -60 -22 -46 -13 9 -27 31 -32 51 -8 32 -4 49
32 134 55 128 77 163 112 176 l29 11 -30 33 c-17 20 -29 45 -29 61 0 37 70
141 132 196 74 67 125 76 193 35z m195 -599 c6 -8 8 -24 5 -35 -2 -12 -7 -65
-11 -119 -10 -144 4 -136 -264 -136 -268 0 -254 -8 -264 136 -4 54 -9 108 -12
120 -3 13 1 28 11 38 16 15 44 17 272 14 212 -3 255 -5 263 -18z"/>
<path d="M342 712 c-30 -30 -28 -56 8 -109 27 -40 30 -52 30 -124 0 -46 4 -79
10 -79 6 0 10 24 10 53 0 30 3 57 6 60 4 4 20 -5 36 -18 36 -31 40 -31 76 0
16 13 32 22 36 18 3 -3 6 -30 6 -60 0 -29 5 -53 10 -53 6 0 10 33 10 79 0 72
3 84 30 124 36 53 38 79 8 109 l-22 22 -8 -37 c-13 -61 -37 -97 -74 -113 -66
-27 -122 17 -142 113 l-8 37 -22 -22z"/>
<path d="M432 689 c2 -7 10 -15 17 -17 8 -3 12 1 9 9 -2 7 -10 15 -17 17 -8 3
-12 -1 -9 -9z"/>
<path d="M505 689 c-4 -6 -5 -13 -2 -16 7 -7 27 6 27 18 0 12 -17 12 -25 -2z"/>
</g>
</svg>
